<mxfile host="app.diagrams.net" modified="2020-08-25T14:30:37.198Z" agent="5.0 (Windows)" etag="KqR1_1gBU9X_Ry_PFw1s" version="13.6.5" type="github">
  <diagram id="lL8X7Zkot_CVrSLnHsAR" name="Page-1">
    <mxGraphModel dx="1662" dy="791" grid="1" gridSize="10" guides="1" tooltips="1" connect="1" arrows="1" fold="1" page="1" pageScale="1" pageWidth="1169" pageHeight="827" math="0" shadow="0">
      <root>
        <mxCell id="0" />
        <mxCell id="1" parent="0" />
        <mxCell id="CzL2BrJTxlNc0yV0PRvW-92" value="" style="edgeStyle=orthogonalEdgeStyle;rounded=0;orthogonalLoop=1;jettySize=auto;html=1;" edge="1" parent="1" source="CzL2BrJTxlNc0yV0PRvW-2" target="CzL2BrJTxlNc0yV0PRvW-58">
          <mxGeometry relative="1" as="geometry" />
        </mxCell>
        <mxCell id="CzL2BrJTxlNc0yV0PRvW-2" value="Save the request. Collected the Equipment number " style="rounded=0;whiteSpace=wrap;html=1;" vertex="1" parent="1">
          <mxGeometry x="110" y="500" width="120" height="60" as="geometry" />
        </mxCell>
        <mxCell id="CzL2BrJTxlNc0yV0PRvW-3" value="" style="edgeStyle=orthogonalEdgeStyle;rounded=0;orthogonalLoop=1;jettySize=auto;html=1;" edge="1" parent="1" source="CzL2BrJTxlNc0yV0PRvW-4" target="CzL2BrJTxlNc0yV0PRvW-54">
          <mxGeometry relative="1" as="geometry" />
        </mxCell>
        <mxCell id="CzL2BrJTxlNc0yV0PRvW-4" value="Start" style="ellipse;whiteSpace=wrap;html=1;" vertex="1" parent="1">
          <mxGeometry x="60" y="80" width="120" height="80" as="geometry" />
        </mxCell>
        <mxCell id="CzL2BrJTxlNc0yV0PRvW-83" value="" style="edgeStyle=orthogonalEdgeStyle;rounded=0;orthogonalLoop=1;jettySize=auto;html=1;" edge="1" parent="1" source="CzL2BrJTxlNc0yV0PRvW-12" target="CzL2BrJTxlNc0yV0PRvW-22">
          <mxGeometry relative="1" as="geometry" />
        </mxCell>
        <mxCell id="CzL2BrJTxlNc0yV0PRvW-12" value="Execute and move to General Data screen" style="rounded=0;whiteSpace=wrap;html=1;" vertex="1" parent="1">
          <mxGeometry x="110" y="395" width="120" height="60" as="geometry" />
        </mxCell>
        <mxCell id="CzL2BrJTxlNc0yV0PRvW-13" value="" style="edgeStyle=orthogonalEdgeStyle;rounded=0;orthogonalLoop=1;jettySize=auto;html=1;" edge="1" parent="1" source="CzL2BrJTxlNc0yV0PRvW-14" target="CzL2BrJTxlNc0yV0PRvW-19">
          <mxGeometry relative="1" as="geometry">
            <Array as="points">
              <mxPoint x="661" y="425" />
            </Array>
          </mxGeometry>
        </mxCell>
        <mxCell id="CzL2BrJTxlNc0yV0PRvW-14" value="Enter construction year, start up date if provided" style="rounded=0;whiteSpace=wrap;html=1;" vertex="1" parent="1">
          <mxGeometry x="601" y="395" width="120" height="60" as="geometry" />
        </mxCell>
        <mxCell id="CzL2BrJTxlNc0yV0PRvW-15" value="" style="edgeStyle=orthogonalEdgeStyle;rounded=0;orthogonalLoop=1;jettySize=auto;html=1;" edge="1" parent="1" source="CzL2BrJTxlNc0yV0PRvW-16" target="CzL2BrJTxlNc0yV0PRvW-14">
          <mxGeometry relative="1" as="geometry" />
        </mxCell>
        <mxCell id="CzL2BrJTxlNc0yV0PRvW-16" value="Go to &amp;nbsp;General tab and fill all the mandatory data" style="rounded=0;whiteSpace=wrap;html=1;" vertex="1" parent="1">
          <mxGeometry x="441" y="395" width="120" height="60" as="geometry" />
        </mxCell>
        <mxCell id="CzL2BrJTxlNc0yV0PRvW-17" value="For DMR it’s mandatory&amp;nbsp;" style="text;html=1;align=center;verticalAlign=middle;resizable=0;points=[];autosize=1;" vertex="1" parent="1">
          <mxGeometry x="585" y="360" width="150" height="20" as="geometry" />
        </mxCell>
        <mxCell id="CzL2BrJTxlNc0yV0PRvW-85" value="" style="edgeStyle=orthogonalEdgeStyle;rounded=0;orthogonalLoop=1;jettySize=auto;html=1;" edge="1" parent="1" source="CzL2BrJTxlNc0yV0PRvW-19" target="CzL2BrJTxlNc0yV0PRvW-43">
          <mxGeometry relative="1" as="geometry" />
        </mxCell>
        <mxCell id="CzL2BrJTxlNc0yV0PRvW-19" value="Go to organisation tab. Enter work centre and plant details according to the country code&amp;nbsp;" style="rounded=0;whiteSpace=wrap;html=1;" vertex="1" parent="1">
          <mxGeometry x="771" y="390" width="110" height="70" as="geometry" />
        </mxCell>
        <mxCell id="CzL2BrJTxlNc0yV0PRvW-20" value="Take ref of Country code excel" style="text;html=1;align=center;verticalAlign=middle;resizable=0;points=[];autosize=1;" vertex="1" parent="1">
          <mxGeometry x="750" y="357" width="180" height="20" as="geometry" />
        </mxCell>
        <mxCell id="CzL2BrJTxlNc0yV0PRvW-84" value="" style="edgeStyle=orthogonalEdgeStyle;rounded=0;orthogonalLoop=1;jettySize=auto;html=1;" edge="1" parent="1" source="CzL2BrJTxlNc0yV0PRvW-22" target="CzL2BrJTxlNc0yV0PRvW-16">
          <mxGeometry relative="1" as="geometry" />
        </mxCell>
        <mxCell id="CzL2BrJTxlNc0yV0PRvW-22" value="Go to Structure tab. &amp;nbsp;Enter the functional locator information" style="rounded=0;whiteSpace=wrap;html=1;" vertex="1" parent="1">
          <mxGeometry x="276" y="395" width="120" height="60" as="geometry" />
        </mxCell>
        <mxCell id="CzL2BrJTxlNc0yV0PRvW-23" value="Parents equipment needs to be filled sometimes&amp;nbsp;" style="text;html=1;align=center;verticalAlign=middle;resizable=0;points=[];autosize=1;" vertex="1" parent="1">
          <mxGeometry x="230" y="357" width="270" height="20" as="geometry" />
        </mxCell>
        <mxCell id="CzL2BrJTxlNc0yV0PRvW-90" value="" style="edgeStyle=orthogonalEdgeStyle;rounded=0;orthogonalLoop=1;jettySize=auto;html=1;" edge="1" parent="1" source="CzL2BrJTxlNc0yV0PRvW-41" target="CzL2BrJTxlNc0yV0PRvW-89">
          <mxGeometry relative="1" as="geometry" />
        </mxCell>
        <mxCell id="CzL2BrJTxlNc0yV0PRvW-41" value="Enter the collected Class under Assessment &amp;gt; Class" style="rounded=0;whiteSpace=wrap;html=1;" vertex="1" parent="1">
          <mxGeometry x="439" y="500" width="120" height="60" as="geometry" />
        </mxCell>
        <mxCell id="CzL2BrJTxlNc0yV0PRvW-87" value="" style="edgeStyle=orthogonalEdgeStyle;rounded=0;orthogonalLoop=1;jettySize=auto;html=1;" edge="1" parent="1" source="CzL2BrJTxlNc0yV0PRvW-43" target="CzL2BrJTxlNc0yV0PRvW-86">
          <mxGeometry relative="1" as="geometry" />
        </mxCell>
        <mxCell id="CzL2BrJTxlNc0yV0PRvW-43" value="Go to Enhancement tab. Enter the Ownership data. start and end date" style="rounded=0;whiteSpace=wrap;html=1;" vertex="1" parent="1">
          <mxGeometry x="766" y="500" width="120" height="60" as="geometry" />
        </mxCell>
        <mxCell id="CzL2BrJTxlNc0yV0PRvW-50" value="" style="edgeStyle=orthogonalEdgeStyle;rounded=0;orthogonalLoop=1;jettySize=auto;html=1;" edge="1" parent="1" source="CzL2BrJTxlNc0yV0PRvW-51" target="CzL2BrJTxlNc0yV0PRvW-52">
          <mxGeometry relative="1" as="geometry" />
        </mxCell>
        <mxCell id="CzL2BrJTxlNc0yV0PRvW-51" value="Mark the status as complete in SN" style="rounded=0;whiteSpace=wrap;html=1;" vertex="1" parent="1">
          <mxGeometry x="265" y="620" width="120" height="60" as="geometry" />
        </mxCell>
        <mxCell id="CzL2BrJTxlNc0yV0PRvW-52" value="Stop" style="ellipse;whiteSpace=wrap;html=1;" vertex="1" parent="1">
          <mxGeometry x="455" y="610" width="120" height="80" as="geometry" />
        </mxCell>
        <mxCell id="CzL2BrJTxlNc0yV0PRvW-53" value="" style="edgeStyle=orthogonalEdgeStyle;rounded=0;orthogonalLoop=1;jettySize=auto;html=1;" edge="1" parent="1" source="CzL2BrJTxlNc0yV0PRvW-54" target="CzL2BrJTxlNc0yV0PRvW-56">
          <mxGeometry relative="1" as="geometry" />
        </mxCell>
        <mxCell id="CzL2BrJTxlNc0yV0PRvW-54" value="Requests come through SFDC (DMR). Request type ‘Creation’ &amp;amp; Equipment ‘NEW/AUTOMATIC’" style="rounded=0;whiteSpace=wrap;html=1;" vertex="1" parent="1">
          <mxGeometry x="230" y="80" width="136" height="80" as="geometry" />
        </mxCell>
        <mxCell id="CzL2BrJTxlNc0yV0PRvW-64" value="" style="edgeStyle=orthogonalEdgeStyle;rounded=0;orthogonalLoop=1;jettySize=auto;html=1;" edge="1" parent="1" source="CzL2BrJTxlNc0yV0PRvW-56" target="CzL2BrJTxlNc0yV0PRvW-62">
          <mxGeometry relative="1" as="geometry" />
        </mxCell>
        <mxCell id="CzL2BrJTxlNc0yV0PRvW-56" value="Collect &amp;nbsp;all the data provided in data change field." style="rounded=0;whiteSpace=wrap;html=1;" vertex="1" parent="1">
          <mxGeometry x="415" y="90" width="120" height="60" as="geometry" />
        </mxCell>
        <mxCell id="CzL2BrJTxlNc0yV0PRvW-57" value="" style="edgeStyle=orthogonalEdgeStyle;rounded=0;orthogonalLoop=1;jettySize=auto;html=1;" edge="1" parent="1" source="CzL2BrJTxlNc0yV0PRvW-58" target="CzL2BrJTxlNc0yV0PRvW-51">
          <mxGeometry relative="1" as="geometry" />
        </mxCell>
        <mxCell id="CzL2BrJTxlNc0yV0PRvW-58" value="Update the Equipment number in comment field" style="rounded=0;whiteSpace=wrap;html=1;" vertex="1" parent="1">
          <mxGeometry x="110" y="610" width="120" height="80" as="geometry" />
        </mxCell>
        <mxCell id="CzL2BrJTxlNc0yV0PRvW-59" value="&lt;b&gt;&lt;font style=&quot;font-size: 14px&quot;&gt;&lt;u&gt;Equipment Creation DMR&lt;/u&gt;&lt;/font&gt;&lt;/b&gt;" style="text;html=1;strokeColor=none;fillColor=none;align=center;verticalAlign=middle;whiteSpace=wrap;rounded=0;" vertex="1" parent="1">
          <mxGeometry x="60" y="10" width="250" height="20" as="geometry" />
        </mxCell>
        <mxCell id="CzL2BrJTxlNc0yV0PRvW-60" value="&lt;i&gt;For update request, collect all data from SFDC. Go to IQ02 screen, search Equipment Serial number/Equipment number. Update required fields as per request.&lt;/i&gt;" style="text;html=1;strokeColor=none;fillColor=none;align=left;verticalAlign=middle;whiteSpace=wrap;rounded=0;" vertex="1" parent="1">
          <mxGeometry x="110" y="710" width="310" height="110" as="geometry" />
        </mxCell>
        <mxCell id="CzL2BrJTxlNc0yV0PRvW-66" value="" style="edgeStyle=orthogonalEdgeStyle;rounded=0;orthogonalLoop=1;jettySize=auto;html=1;" edge="1" parent="1" source="CzL2BrJTxlNc0yV0PRvW-62" target="CzL2BrJTxlNc0yV0PRvW-65">
          <mxGeometry relative="1" as="geometry" />
        </mxCell>
        <mxCell id="CzL2BrJTxlNc0yV0PRvW-62" value="Go to CL6AN screen on SAP" style="rounded=0;whiteSpace=wrap;html=1;" vertex="1" parent="1">
          <mxGeometry x="586" y="90" width="120" height="60" as="geometry" />
        </mxCell>
        <mxCell id="CzL2BrJTxlNc0yV0PRvW-68" value="" style="edgeStyle=orthogonalEdgeStyle;rounded=0;orthogonalLoop=1;jettySize=auto;html=1;" edge="1" parent="1" source="CzL2BrJTxlNc0yV0PRvW-65" target="CzL2BrJTxlNc0yV0PRvW-67">
          <mxGeometry relative="1" as="geometry" />
        </mxCell>
        <mxCell id="CzL2BrJTxlNc0yV0PRvW-65" value="Search the Product Type name" style="whiteSpace=wrap;html=1;rounded=0;" vertex="1" parent="1">
          <mxGeometry x="759" y="90" width="120" height="60" as="geometry" />
        </mxCell>
        <mxCell id="CzL2BrJTxlNc0yV0PRvW-72" value="" style="edgeStyle=orthogonalEdgeStyle;rounded=0;orthogonalLoop=1;jettySize=auto;html=1;" edge="1" parent="1" source="CzL2BrJTxlNc0yV0PRvW-67" target="CzL2BrJTxlNc0yV0PRvW-71">
          <mxGeometry relative="1" as="geometry" />
        </mxCell>
        <mxCell id="CzL2BrJTxlNc0yV0PRvW-67" value="Collect the Class and Product type from the screen" style="whiteSpace=wrap;html=1;rounded=0;" vertex="1" parent="1">
          <mxGeometry x="930" y="90" width="120" height="60" as="geometry" />
        </mxCell>
        <mxCell id="CzL2BrJTxlNc0yV0PRvW-74" value="" style="edgeStyle=orthogonalEdgeStyle;rounded=0;orthogonalLoop=1;jettySize=auto;html=1;" edge="1" parent="1" source="CzL2BrJTxlNc0yV0PRvW-71" target="CzL2BrJTxlNc0yV0PRvW-73">
          <mxGeometry relative="1" as="geometry" />
        </mxCell>
        <mxCell id="CzL2BrJTxlNc0yV0PRvW-80" style="edgeStyle=orthogonalEdgeStyle;rounded=0;orthogonalLoop=1;jettySize=auto;html=1;exitX=0.5;exitY=1;exitDx=0;exitDy=0;entryX=1;entryY=0.5;entryDx=0;entryDy=0;" edge="1" parent="1" source="CzL2BrJTxlNc0yV0PRvW-73" target="CzL2BrJTxlNc0yV0PRvW-79">
          <mxGeometry relative="1" as="geometry" />
        </mxCell>
        <mxCell id="CzL2BrJTxlNc0yV0PRvW-71" value="Check the length of Functional location " style="whiteSpace=wrap;html=1;rounded=0;" vertex="1" parent="1">
          <mxGeometry x="930" y="190" width="120" height="60" as="geometry" />
        </mxCell>
        <mxCell id="CzL2BrJTxlNc0yV0PRvW-76" value="" style="edgeStyle=orthogonalEdgeStyle;rounded=0;orthogonalLoop=1;jettySize=auto;html=1;" edge="1" parent="1" source="CzL2BrJTxlNc0yV0PRvW-73" target="CzL2BrJTxlNc0yV0PRvW-75">
          <mxGeometry relative="1" as="geometry" />
        </mxCell>
        <mxCell id="CzL2BrJTxlNc0yV0PRvW-73" value="Is it of 36 character?" style="rhombus;whiteSpace=wrap;html=1;" vertex="1" parent="1">
          <mxGeometry x="779" y="180" width="80" height="80" as="geometry" />
        </mxCell>
        <mxCell id="CzL2BrJTxlNc0yV0PRvW-75" value="Inform the requestor. Move to next case" style="rounded=0;whiteSpace=wrap;html=1;" vertex="1" parent="1">
          <mxGeometry x="590" y="190" width="120" height="60" as="geometry" />
        </mxCell>
        <mxCell id="CzL2BrJTxlNc0yV0PRvW-78" value="N" style="text;html=1;strokeColor=none;fillColor=none;align=center;verticalAlign=middle;whiteSpace=wrap;rounded=0;" vertex="1" parent="1">
          <mxGeometry x="730" y="190" width="40" height="20" as="geometry" />
        </mxCell>
        <mxCell id="CzL2BrJTxlNc0yV0PRvW-82" value="" style="edgeStyle=orthogonalEdgeStyle;rounded=0;orthogonalLoop=1;jettySize=auto;html=1;" edge="1" parent="1" source="CzL2BrJTxlNc0yV0PRvW-79" target="CzL2BrJTxlNc0yV0PRvW-12">
          <mxGeometry relative="1" as="geometry" />
        </mxCell>
        <mxCell id="CzL2BrJTxlNc0yV0PRvW-79" value="Open IL01 screen on SAP" style="rounded=0;whiteSpace=wrap;html=1;" vertex="1" parent="1">
          <mxGeometry x="110" y="280" width="120" height="60" as="geometry" />
        </mxCell>
        <mxCell id="CzL2BrJTxlNc0yV0PRvW-81" value="Y" style="text;html=1;strokeColor=none;fillColor=none;align=center;verticalAlign=middle;whiteSpace=wrap;rounded=0;" vertex="1" parent="1">
          <mxGeometry x="520" y="280" width="40" height="20" as="geometry" />
        </mxCell>
        <mxCell id="CzL2BrJTxlNc0yV0PRvW-88" value="" style="edgeStyle=orthogonalEdgeStyle;rounded=0;orthogonalLoop=1;jettySize=auto;html=1;" edge="1" parent="1" source="CzL2BrJTxlNc0yV0PRvW-86" target="CzL2BrJTxlNc0yV0PRvW-41">
          <mxGeometry relative="1" as="geometry" />
        </mxCell>
        <mxCell id="CzL2BrJTxlNc0yV0PRvW-86" value="Go to class overview screen" style="rounded=0;whiteSpace=wrap;html=1;" vertex="1" parent="1">
          <mxGeometry x="605" y="500" width="120" height="60" as="geometry" />
        </mxCell>
        <mxCell id="CzL2BrJTxlNc0yV0PRvW-91" value="" style="edgeStyle=orthogonalEdgeStyle;rounded=0;orthogonalLoop=1;jettySize=auto;html=1;" edge="1" parent="1" source="CzL2BrJTxlNc0yV0PRvW-89" target="CzL2BrJTxlNc0yV0PRvW-2">
          <mxGeometry relative="1" as="geometry" />
        </mxCell>
        <mxCell id="CzL2BrJTxlNc0yV0PRvW-89" value="Enter the required product type" style="rounded=0;whiteSpace=wrap;html=1;" vertex="1" parent="1">
          <mxGeometry x="276" y="500" width="120" height="60" as="geometry" />
        </mxCell>
      </root>
    </mxGraphModel>
  </diagram>
</mxfile>
